<?xml version="1.0" encoding="iso-8859-1"?>
<!-- Generator: Adobe Illustrator 19.0.0, SVG Export Plug-In . SVG Version: 6.00 Build 0)  -->
<svg version="1.1" id="Capa_1" xmlns="http://www.w3.org/2000/svg" xmlns:xlink="http://www.w3.org/1999/xlink" x="0px" y="0px"
	 viewBox="0 0 512.002 512.002" style="enable-background:new 0 0 512.002 512.002;" xml:space="preserve">
<g>
	<g>
		<path d="M136.002,211.001c-24.813,0-45,20.187-45,45c0,24.813,20.186,45,45,45c24.813,0,45-20.187,45-45
			S160.815,211.001,136.002,211.001z M136.002,271.001c-8.271,0-15-6.729-15-15c0-8.271,6.728-15,15-15c8.271,0,15,6.729,15,15
			C151.002,264.272,144.273,271.001,136.002,271.001z"/>
	</g>
</g>
<g>
	<g>
		<path d="M470.209,93.13C438.785,33.075,400.001,0.001,361.002,0.001c-34.804,0-68.755,25.734-98.184,74.421
			c-18.941,31.337-34.565,70.035-43.624,107.281l-73.983-57.542c-4.813-3.749-11.519-4.203-16.771-1.114
			C48.856,169.497-0.354,254.922,0.002,345.995c0,0.002,0,0.004,0,0.006v151c0,8.284,6.716,15,15,15h61c8.284,0,15-6.716,15-15
			c0-8.271,6.729-15,15-15s15,6.729,15,15c0,8.284,6.716,15,15,15h270c8.284,0,15-6.716,15-15V378.482
			c54.845-23.882,91-77.854,91-137.481C512.002,200.329,495.207,140.904,470.209,93.13z M134.994,154.22l84.75,65.917
			c0.036,0.028,0.071,0.056,0.107,0.083l142.433,110.781h-76.282c-24.813,0-45,20.187-45,45c0,8.271-6.729,15-15,15s-15-6.729-15-15
			c0-24.813-20.187-45-45-45H30.444C34.973,259.551,73.905,193.552,134.994,154.22z M391.002,482.001h-242.57
			c-6.19-17.461-22.873-30-42.43-30s-36.239,12.539-42.43,30h-33.57v-121h136c8.271,0,15,6.729,15,15c0,24.813,20.187,45,45,45
			s45-20.187,45-45c0-8.271,6.729-15,15-15h105V482.001z M420.95,344.978c-0.616-4.925-2.559-8.362-5.74-10.818l-169.8-132.067
			c7.538-37.845,23.675-80.043,43.083-112.152c23.363-38.653,49.114-59.94,72.509-59.94c26.893,0,57.008,28.079,82.626,77.038
			c22.952,43.866,38.374,97.701,38.374,133.962C482.002,284.199,458.168,323.7,420.95,344.978z"/>
	</g>
</g>
<g>
	<g>
		<path d="M442.302,186.681c-5.068-17.958-12.194-36.943-20.605-54.906c-8.227-17.564-17.182-33.114-25.898-44.97
			c-4.906-6.675-14.298-8.106-20.97-3.2c-6.675,4.907-8.107,14.296-3.2,20.971c7.465,10.154,15.598,24.333,22.9,39.923
			c7.731,16.511,14.269,33.916,18.902,50.332c1.865,6.61,7.882,10.929,14.428,10.929c1.349,0,2.721-0.184,4.083-0.568
			C439.915,202.942,444.553,194.654,442.302,186.681z"/>
	</g>
</g>
<g>
</g>
<g>
</g>
<g>
</g>
<g>
</g>
<g>
</g>
<g>
</g>
<g>
</g>
<g>
</g>
<g>
</g>
<g>
</g>
<g>
</g>
<g>
</g>
<g>
</g>
<g>
</g>
<g>
</g>
</svg>
